<svg xmlns="http://www.w3.org/2000/svg" width="200" height="40" viewBox="0 0 200 40" fill="none"><path d="M173.879 15.7301V27.1341C173.879 27.9068 174.053 28.4677 174.402 28.8166C174.776 29.1407 175.399 29.3027 176.272 29.3027H178.889V32.8548H175.524C173.604 32.8548 172.134 32.4061 171.112 31.5087C170.09 30.6114 169.579 29.1531 169.579 27.1341V15.7301H167.148V12.2528H169.579V7.13037H173.879V12.2528H178.889V15.7301H173.879Z" fill="#595C5C"></path><path d="M153.999 33.1915C152.055 33.1915 150.298 32.7552 148.727 31.8828C147.157 30.9855 145.923 29.7391 145.026 28.1438C144.128 26.5236 143.68 24.6541 143.68 22.5353C143.68 20.4414 144.141 18.5844 145.063 16.9642C145.985 15.3439 147.244 14.0976 148.84 13.2252C150.435 12.3527 152.217 11.9165 154.186 11.9165C156.156 11.9165 157.938 12.3527 159.533 13.2252C161.128 14.0976 162.387 15.3439 163.309 16.9642C164.232 18.5844 164.693 20.4414 164.693 22.5353C164.693 24.6291 164.219 26.4862 163.272 28.1064C162.325 29.7267 161.029 30.9855 159.384 31.8828C157.763 32.7552 155.969 33.1915 153.999 33.1915ZM153.999 29.4898C155.096 29.4898 156.118 29.2281 157.065 28.7047C158.037 28.1812 158.823 27.396 159.421 26.3491C160.019 25.3022 160.318 24.0309 160.318 22.5353C160.318 21.0397 160.032 19.7809 159.458 18.7589C158.885 17.712 158.125 16.9268 157.178 16.4033C156.23 15.8799 155.208 15.6181 154.112 15.6181C153.015 15.6181 151.993 15.8799 151.046 16.4033C150.123 16.9268 149.388 17.712 148.84 18.7589C148.291 19.7809 148.017 21.0397 148.017 22.5353C148.017 24.7538 148.578 26.4737 149.699 27.6951C150.846 28.8916 152.279 29.4898 153.999 29.4898Z" fill="#595C5C"></path><path d="M135.425 19.5065C136.821 19.7558 138.005 20.4911 138.977 21.7125C139.949 22.9339 140.435 24.3174 140.435 25.8628C140.435 27.1839 140.086 28.3804 139.388 29.4523C138.715 30.4992 137.73 31.3342 136.434 31.9574C135.138 32.5557 133.63 32.8548 131.91 32.8548H121.516V6.86865H131.424C133.194 6.86865 134.714 7.16777 135.986 7.76602C137.257 8.36426 138.217 9.17438 138.865 10.1964C139.513 11.1934 139.837 12.3151 139.837 13.5615C139.837 15.0571 139.438 16.3034 138.64 17.3005C137.843 18.2976 136.771 19.0329 135.425 19.5065ZM125.778 17.7866H131.05C132.446 17.7866 133.53 17.475 134.303 16.8518C135.101 16.2037 135.5 15.2814 135.5 14.0849C135.5 12.9134 135.101 12.0036 134.303 11.3555C133.53 10.6824 132.446 10.3459 131.05 10.3459H125.778V17.7866ZM131.536 29.3775C132.982 29.3775 134.116 29.0285 134.939 28.3306C135.761 27.6326 136.173 26.6605 136.173 25.4141C136.173 24.1429 135.736 23.1333 134.864 22.3855C133.991 21.6377 132.832 21.2638 131.387 21.2638H125.778V29.3775H131.536Z" fill="#595C5C"></path><path d="M113.823 9.52341C113.05 9.52341 112.402 9.26168 111.879 8.73822C111.355 8.21475 111.094 7.56666 111.094 6.79393C111.094 6.0212 111.355 5.37311 111.879 4.84965C112.402 4.32618 113.05 4.06445 113.823 4.06445C114.571 4.06445 115.207 4.32618 115.73 4.84965C116.254 5.37311 116.515 6.0212 116.515 6.79393C116.515 7.56666 116.254 8.21475 115.73 8.73822C115.207 9.26168 114.571 9.52341 113.823 9.52341ZM115.917 12.2529V32.8548H111.655V12.2529H115.917Z" fill="#0E101A"></path><path d="M101.817 22.423L108.472 32.8549H103.649L99.1996 25.8629L95.0119 32.8549H90.5625L97.2179 22.7222L90.5625 12.2529H95.3858L99.8352 19.2449L104.023 12.2529H108.472L101.817 22.423Z" fill="#0E101A"></path><path d="M88.8028 22.0492C88.8028 22.8219 88.753 23.5199 88.6533 24.1431H72.912C73.0367 25.7882 73.6474 27.1093 74.7441 28.1064C75.8409 29.1035 77.187 29.602 78.7823 29.602C81.0755 29.602 82.6958 28.6423 83.643 26.723H88.242C87.6188 28.6174 86.4846 30.1753 84.8395 31.3967C83.2192 32.5932 81.2002 33.1915 78.7823 33.1915C76.8131 33.1915 75.0433 32.7552 73.4729 31.8828C71.9274 30.9855 70.706 29.7391 69.8087 28.1438C68.9362 26.5236 68.5 24.6541 68.5 22.5353C68.5 20.4165 68.9238 18.5595 69.7713 16.9642C70.6437 15.3439 71.8526 14.0976 73.3981 13.2252C74.9685 12.3527 76.7632 11.9165 78.7823 11.9165C80.7266 11.9165 82.459 12.3403 83.9795 13.1878C85.5 14.0353 86.6841 15.2318 87.5316 16.7772C88.3791 18.2977 88.8028 20.0551 88.8028 22.0492ZM84.3534 20.7032C84.3285 19.1328 83.7676 17.874 82.6708 16.9268C81.5741 15.9796 80.2156 15.506 78.5953 15.506C77.1246 15.506 75.8658 15.9796 74.8189 16.9268C73.772 17.8491 73.1488 19.1079 72.9494 20.7032H84.3534Z" fill="#0E101A"></path><path d="M57.5672 29.4149H66.3538V32.8548H53.3047V6.86865H57.5672V29.4149Z" fill="#0E101A"></path><path d="M0 8.99584C0 4.02757 4.02757 0 8.99584 0H30.5414C35.5097 0 39.5373 4.02757 39.5373 8.99584V30.5414C39.5373 35.5097 35.5097 39.5373 30.5414 39.5373H8.99584C4.02757 39.5373 0 35.5097 0 30.5414V8.99584Z" fill="url(#paint0_linear_127_17)"></path><path d="M8.44531 9.73271C8.44531 8.46699 9.46773 7.44092 10.7289 7.44092H15.6388C16.9 7.44092 17.9224 8.46699 17.9224 9.73271V29.7859C17.9224 31.0516 16.9 32.0777 15.6388 32.0777H10.7289C9.46773 32.0777 8.44531 31.0516 8.44531 29.7859V9.73271Z" fill="white"></path><path d="M21.625 24.8981C21.625 23.6292 22.6474 22.6006 23.9086 22.6006H28.8185C30.0797 22.6006 31.1021 23.6292 31.1021 24.8981V29.7802C31.1021 31.0491 30.0797 32.0777 28.8185 32.0777H23.9086C22.6474 32.0777 21.625 31.0491 21.625 29.7802V24.8981Z" fill="white"></path><path fill-rule="evenodd" clip-rule="evenodd" d="M195.088 15.8338C194.912 16.4402 193.988 16.4402 193.812 15.8338L193.564 14.9742C193.028 13.1216 192.297 11.6751 190.308 11.1766L189.385 10.9452C189.248 10.9178 189.124 10.8437 189.036 10.7354C188.947 10.6271 188.898 10.4913 188.898 10.3512C188.898 10.2111 188.947 10.0753 189.036 9.96701C189.124 9.8587 189.248 9.78456 189.385 9.75721L190.308 9.52583C192.297 9.02657 193.028 7.58003 193.564 5.72818L193.812 4.86864C193.988 4.26145 194.912 4.26145 195.088 4.86864L195.336 5.72818C195.872 7.58003 196.604 9.02657 198.592 9.52505L199.514 9.75721C199.651 9.78456 199.774 9.8587 199.863 9.96701C199.952 10.0753 200 10.2111 200 10.3512C200 10.4913 199.952 10.6271 199.863 10.7354C199.774 10.8437 199.651 10.9178 199.514 10.9452L198.592 11.1766C196.604 11.6751 195.872 13.1216 195.336 14.9735L195.088 15.8338Z" fill="url(#paint1_linear_127_17)"></path><path fill-rule="evenodd" clip-rule="evenodd" d="M187.439 7.15412C187.333 7.53391 186.776 7.53391 186.671 7.15412L186.521 6.61557C186.199 5.45597 185.759 4.54931 184.561 4.23645L184.005 4.09169C183.922 4.072 183.847 4.02453 183.793 3.95701C183.74 3.88948 183.711 3.80585 183.711 3.71969C183.711 3.63353 183.74 3.5499 183.793 3.48237C183.847 3.41484 183.922 3.36738 184.005 3.34768L184.561 3.20215C185.758 2.89007 186.199 1.9834 186.521 0.823804L186.671 0.285251C186.776 -0.0953153 187.333 -0.0953153 187.439 0.285251L187.589 0.823804C187.911 1.9834 188.352 2.89007 189.55 3.20215L190.105 3.34768C190.189 3.36738 190.263 3.41484 190.317 3.48237C190.37 3.5499 190.399 3.63353 190.399 3.71969C190.399 3.80585 190.37 3.88948 190.317 3.95701C190.263 4.02453 190.189 4.072 190.105 4.09169L189.55 4.23645C188.352 4.54853 187.911 5.4552 187.589 6.61557L187.439 7.15412Z" fill="url(#paint2_linear_127_17)"></path><defs><linearGradient id="paint0_linear_127_17" x1="19.7686" y1="0" x2="19.7686" y2="39.5373" gradientUnits="userSpaceOnUse"><stop offset="0.25" stop-color="#2FADAD"></stop><stop offset="0.75" stop-color="#007A7A"></stop></linearGradient><linearGradient id="paint1_linear_127_17" x1="194.346" y1="4.56194" x2="200.054" y2="15.9512" gradientUnits="userSpaceOnUse"><stop stop-color="#007A7A"></stop><stop offset="1" stop-color="#E6FFE6"></stop></linearGradient><linearGradient id="paint2_linear_127_17" x1="186.891" y1="-0.0299418" x2="190.465" y2="7.1093" gradientUnits="userSpaceOnUse"><stop stop-color="#FF0000"></stop><stop offset="1" stop-color="#FFE6E6"></stop></linearGradient></defs></svg>